<?xml version="1.0" encoding="UTF-8" standalone="no"?>
<!DOCTYPE svg PUBLIC "-//W3C//DTD SVG 1.1//EN" "http://www.w3.org/Graphics/SVG/1.1/DTD/svg11.dtd">
<svg width="100%" height="100%" viewBox="0 0 365 265" version="1.1" xmlns="http://www.w3.org/2000/svg" xmlns:xlink="http://www.w3.org/1999/xlink" xml:space="preserve" xmlns:serif="http://www.serif.com/" style="fill-rule:evenodd;clip-rule:evenodd;stroke-linejoin:round;stroke-miterlimit:1.41421;">
    <g id="layer101" transform="matrix(1,0,0,1,-189,-43)">
        <path d="M404,295.6C404,293.6 403.6,292 403.1,292C402.6,292 401.6,288.1 400.9,283.4C399.9,276.2 399.2,274.3 396.8,272L394,269.2L394,297.3L379.8,296.7C372,296.3 365.4,295.6 365.1,295.2C364.8,294.7 363.2,294 361.7,293.6C358.3,292.8 352.5,287.3 351.5,283.9C351.1,282.6 350.3,281.2 349.8,280.9C349.4,280.6 348.8,278.5 348.6,276.2C348.3,273.9 347.5,271.3 346.7,270.5C345.4,269.3 345.1,269.9 344.1,275C343.4,278.3 342.5,281 341.9,281C341.4,281 341,281.6 341,282.3C341,283 339,285.7 336.6,288.4L332.1,293.2L321.4,292.8C314.1,292.6 310.5,292 310.2,291.2C310,290.5 307.9,290 304.9,290C302.2,290 300,289.6 300,289C300,288.5 299.1,288 298.1,288C297,288 296,287.4 295.7,286.8C295.3,285.8 295,285.8 293.9,286.8C292.1,288.5 290,288.3 290,286.5C290,285.7 289.6,285 289,285C288.5,285 288,284.1 288,283.1C288,280 286.9,277.9 285.6,278.8C285,279.2 281.8,280 278.5,280.5C272.7,281.5 272.5,281.7 272.8,284.4C273.2,288.2 271.4,290 267.4,290C265.5,290 264,290.5 264,291C264,292.5 262.1,292.2 260.3,290.4C259.2,289.4 259,288.6 259.7,288.2C261.2,287.2 261.8,276.8 260.4,276.3C259.7,276.1 259.1,277.9 258.8,281.3C258.1,290.2 253.8,294 244.2,294C241.7,294 234.6,293.5 228.3,292.8L216.8,291.6L217.5,285.6C217.9,282.2 218.7,279 219.2,278.3C220.6,276.5 220.7,265.1 219.3,264.2C217.7,263.2 216.6,258.4 217.9,257.6C218.5,257.2 219.8,257.5 220.9,258.2C222,258.9 223.3,259 223.7,258.6C224.1,258.1 223.9,257.5 223.3,257.3C221.8,256.8 221.6,253.3 222.9,252.8C223.5,252.7 224.1,249.9 224.4,246.7C224.6,243.4 225.1,240.6 225.4,240.3C226.3,239.4 239,241.1 239,242.1C239,242.6 240.7,243 242.8,243C248.1,243.1 253.6,244.5 255.5,246.3C256.3,247.2 257.9,248.1 259,248.5C263.2,249.8 262.9,262.5 258.5,266.6C257.1,267.9 256.4,269 256.9,269C257.5,269 258,269.7 258,270.5C258,271.5 259,272 261.3,272L264.6,272L265.8,263.8C266.6,259.3 267.6,254.8 268.1,253.8C268.7,252.8 269.2,250.1 269.3,248C269.4,244.3 269.6,244 272.5,243.9C274.1,243.9 277,243.7 278.8,243.4C281.5,243.1 282.2,243.4 283,245.5C283.5,246.9 284.4,248 284.9,248C285.4,248 286.1,249.6 286.4,251.5C286.8,253.4 287.7,255.5 288.4,256.2C289.1,257 290.3,259.2 290.9,261.3C291.6,263.3 292.5,265 292.9,265C293.3,265 294.2,266.6 294.9,268.5C295.6,270.4 296.5,272 296.9,272C297.4,272 298,273.7 298.4,275.8C298.7,277.8 299.4,280.2 300,281C300.9,282.3 301.1,282.3 302,281C302.5,280.2 303,277.7 303,275.5C303,273.3 303.4,270.8 303.9,270C304.6,269 304.1,268.1 301.9,266.8C298.9,265 298,263 300.3,263C301,263 302.8,262.4 304.2,261.8C306.5,260.7 306.9,259.8 307.5,253.8C307.8,250 308.5,247 309.1,247C309.6,247 310,245.7 310,244C310,241.3 310.3,241 313.4,241C315.3,241 317,241.4 317.2,242C317.4,242.5 321,243.5 325.3,244.2C329.5,244.8 333,245.7 333,246.1C333,246.5 334,247 335.3,247.4C336.5,247.7 339,249.2 340.8,250.8C343.4,253.2 344.2,254.8 344.7,258.9C345,261.7 345.7,264 346.1,264C347.5,264 349,260.3 349,257C349,255.2 349.6,253.7 350.5,253.4C351.3,253 352,251.9 352,250.9C352,249.8 352.7,248.7 353.5,248.4C354.3,248 355,247.3 355,246.8C355,246.3 356.4,244.5 358.1,242.8C360.3,240.6 362.3,239.6 365.6,239.2C368,239 370,238.3 370,237.9C370,237.4 372,237 374.5,237C377,237 379,237.4 379,237.9C379,238.4 380.4,239 382.1,239.4C385.2,240 390,244.1 390,246.1C390,246.6 390.4,247 390.9,247C391.4,247 392.3,248.2 392.9,249.8C394.1,252.7 394.1,252.9 392.3,245.3C391.9,243.5 392.2,243 393.9,243C395,243 396,242.6 396,242.1C396,241.6 399.6,240.8 404.1,240.4C408.5,240 412.7,239.2 413.3,238.6C414.3,237.6 429,234.7 429.6,235.3C429.8,235.4 430.2,238.3 430.5,241.7L431.2,247.8L424.6,248.5C421,248.9 418,249.6 418,250C418,250.7 415.4,251.2 407.9,252.2C406.6,252.4 406.5,252.8 407.7,255C408.4,256.4 409,258.3 409,259.3C409,260.2 409.5,261 410.1,261C413.1,261 424.6,258.5 425.1,257.8C425.4,257.3 427.2,256.7 429.2,256.4C432.6,255.8 432.7,255.9 433.3,259.6C433.7,261.8 434,264.7 434,266.3C434,268.8 433.7,269 430.1,269C427.9,269 425.9,269.4 425.6,269.9C425.2,270.4 423.1,271.1 420.7,271.5C411.2,272.9 410.9,273 412,275C412.6,276 413,278.1 413,279.7C413,281.2 413.4,283 413.8,283.7C414.6,285 420,284.3 420,282.9C420,282.4 421,282 422.2,282C425.9,282 436.5,279.6 437.1,278.6C437.5,278.1 438.5,278 439.3,278.3C441.1,279 442.8,289.7 441.4,291C440.9,291.4 437.2,292.2 433.1,292.8C429,293.4 425.4,294.3 425.1,294.8C424.8,295.3 421.4,296.2 417.5,296.8C413.7,297.4 409,298.2 407.3,298.6C404.1,299.2 404,299.2 404,295.6ZM239.4,282.8C239.9,281.8 240.1,281.8 240.6,282.8C240.9,283.4 241.8,284 242.6,284C244.4,284 248,280.9 247.4,279.8C247.1,279.4 247.5,279 248.2,279C249,279 249.1,278.7 248.5,278.2C248,277.8 247,276.6 246.4,275.5C245.6,274.1 243.7,273.3 239.5,272.7C232.9,271.8 231.1,273.1 231,278.8C231,281.7 231.3,282 234,282C235.7,282 237,282.5 237,283C237,284.4 238.7,284.2 239.4,282.8ZM377,283.1C377,282.6 377.8,281.9 378.8,281.5C379.9,281.2 381.2,279.8 381.8,278.5C383,276 382.9,276 377.5,276L372,276L372,270C372,265.9 372.4,264 373.3,263.9C373.9,263.9 379.5,263.9 385.6,264L396.8,264.1L396,260C395.2,255.4 394,253.6 394,256.9C394,258.9 393.6,259.1 388.3,258.8C384.3,258.6 382.6,258.1 382.8,257.3C382.9,256.6 382.5,256 382,256C381.5,256 381,255.4 381,254.7C381,252.8 376.3,249 374,249C372.9,249 372,249.4 372,249.9C372,250.5 370.5,251 368.8,251.2C366.5,251.4 365.2,252.2 364.5,253.8C364,255 363.2,256 362.7,256C362.3,256 362.1,256.4 362.5,256.9C362.8,257.4 362.6,258.1 362,258.5C359.9,259.8 361,263.9 364,265.7C367.5,267.7 367.9,269 365,269C363.9,269 363,269.5 363,270C363,270.6 362.3,271 361.4,271C360.3,271 360,271.6 360.6,273.3C360.9,274.5 361.7,275.7 362.1,275.8C362.6,276 363,277.2 363,278.5C363,280.1 363.7,281 365.5,281.4C366.9,281.8 368,282.5 368,283C368,283.6 370,284 372.5,284C375,284 377,283.6 377,283.1ZM328,281C328.8,280.5 329.5,279.7 329.6,279.3C329.6,278.9 330.2,277.2 330.9,275.5C332.7,271.1 333.3,264 332.3,260C331.5,256.8 330.9,256.4 326.7,255.6C324.1,255.2 322,254.4 322,253.9C322,253.4 321.4,253 320.6,253C319.6,253 318.9,254.6 318.5,257.8C318.1,260.4 317.7,262.9 317.6,263.5C317.3,264.7 319.5,267 320.9,267C321.5,267 322,267.5 322,268C322,268.6 321.1,269 320,269C318.9,269 318,269.5 318,270C318,270.6 317.3,271 316.4,271C315.4,271 315.1,271.6 315.4,272.8C315.7,273.7 315.6,276 315.1,277.7C314.3,280.3 314.5,281 315.8,281.3C319,282.2 326.5,282 328,281ZM282.4,268.3C282,266.7 281.1,265 280.4,264.4C279.6,263.8 279,262.4 279,261.4C279,260 278.6,260.2 277.5,262.4C276.7,263.9 276,265.9 276,266.8C276,268.6 278.9,270.9 281.3,271C282.7,271 282.9,270.5 282.4,268.3ZM249.5,258.3C249.6,256.8 249,255.8 247.6,255.4C246.4,255 245.3,254.4 245,254C244.7,253.6 242.1,252.9 239.1,252.5C233.9,251.8 233.7,251.8 234.3,254C234.6,255.2 234.5,257.2 234,258.4C233.2,260.5 233.4,260.6 241.3,260.5C248.9,260.5 249.3,260.4 249.5,258.3Z" style="fill:white;fill-rule:nonzero;"/>
        <path d="M500.3,296.3C498.5,296.1 497,295.5 497,295.1C497,294.7 495.5,293.9 493.6,293.2C491.7,292.5 490,291.1 489.7,290C489.4,288.9 488.7,288 488.2,288C487.6,288 487.4,288.9 487.7,290C488.2,291.8 487.7,292 482.7,292C479.7,292 476.5,292.3 475.6,292.6C474.4,293.1 474,292.6 474,290.7C474,289.3 473.5,287.8 472.9,287.4C472.3,287.1 472,285.2 472.2,283.4C472.4,281.5 472.3,280 471.9,280C471.5,280 471,278.5 470.8,276.8L470.5,273.5L462.8,273.5C455.9,273.5 453.1,274.2 455.9,275.2C456.4,275.4 457.1,279 457.4,283.3C457.7,287.6 458.2,291.5 458.5,291.9C458.8,292.4 458.7,293.5 458.4,294.4C457.9,295.6 456.4,296 452,296C445.2,296 445,295.6 445.1,287C445.2,283.8 444.8,281.4 444.1,281.2C443.5,281 443,279.4 443,277.6C443,274 440.4,268 438.9,268C438.4,268 438,267.1 438,266C438,264.6 438.7,264 440.1,264C442.1,264 442.1,263.7 441.4,254.8C441,249.7 440.3,245.2 439.8,244.9C439.2,244.5 439,243.4 439.2,242.4C439.5,240.9 440.5,240.5 444,240.3C446.5,240.2 453.5,239.8 459.6,239.4C472.5,238.6 477,239.6 479.1,243.8C479.9,245.3 480.9,246.8 481.5,247.2C482,247.6 482.4,251.1 482.3,255C482.1,261 481.7,262.4 479.9,263.9L477.6,265.7L480.3,267.5C482.5,268.9 483,270.1 483.1,273.4C483.2,275.6 483.4,276.7 483.7,275.8C483.9,274.8 484.5,273.9 484.8,273.9C488.8,273.2 491.1,273.3 491.5,274.1C491.9,274.6 493,275 494.1,275C495.4,275 496,275.7 496,277.2C496,278.3 497.5,280.6 499.3,282.2C502,284.8 503.1,285.1 506.7,284.7C513.9,283.9 516.3,279.8 511.8,275.9C509.1,273.7 508,273.5 508,275.3C508,276.5 504.6,280 503.5,280C503.2,280 503,278.8 503,277.4C503,274 501.3,271 499.4,271C497.3,271 490,263.7 490,261.7C490,260.7 489.6,260 489,260C487.4,260 487.8,250.4 489.5,249C490.3,248.3 491,247.2 491,246.5C491,244.4 495.4,240.2 498.3,239.5C499.8,239.1 501,238.4 501,237.9C501,237.4 503.5,237 506.5,237C509.5,237 512,237.4 512,238C512,238.5 513.9,239.4 516.1,240C523.4,242 528,248.6 528,257.1C528,259.8 527.8,260 523.8,260C517,260 515,259.1 515,256.2C515,254.8 513.9,252.7 512.5,251.4C511.1,250.1 510,249.6 510,250.2C510,251.1 509.7,251.1 508.8,250.2C507.3,248.7 504,248.6 504,250C504,250.6 503.3,251 502.5,251C501.7,251 501.3,251.6 501.6,252.4C501.9,253.2 501.6,254.1 501,254.5C500.2,255 500.4,255.8 501.6,257.1C504.1,259.8 505.7,259.4 506.5,256C506.9,254.4 507.5,253 507.9,253C508.9,253 510.9,257 511.2,259.9C511.4,261.7 512.5,262.6 515.2,263.6C519.7,265.2 525,270.5 525,273.6C525,274.9 525.5,276 526,276C526.6,276 527,276.9 527,278C527,279.1 526.6,280 526.1,280C525.6,280 525,281.7 524.7,283.8C524.3,286.3 522.7,289 520,291.9C516.1,296 515.6,296.2 509.7,296.5C506.3,296.7 502,296.6 500.3,296.3ZM461.8,261.8C462,261.4 463.7,261 465.5,261C467.4,261 469.2,260.5 469.6,259.9C470.9,257.7 470.1,252.8 468.1,250.9C465.9,248.9 463,248.4 463,250C463,250.6 460.9,251 458.3,251L453.5,251L453.8,257.4L454.2,263.8L457.8,263.3C459.8,262.9 461.7,262.3 461.8,261.8Z" style="fill:white;fill-rule:nonzero;"/>
        <path d="M432.3,236.3C431.6,236.1 431,234.3 431,232.4C431,228.6 429.2,220.1 428,218.5C427.3,217.6 426.1,210.5 425.5,203.9C425.3,202.3 423.1,199.1 419.6,195.7C416.5,192.5 414,189.4 414,188.6C414,187.1 419.6,185.6 421.3,186.7C422,187.1 422.1,186.5 421.6,184.9C421.2,183.6 420.6,181.2 420.3,179.5C420,177.9 419.4,176.1 419,175.5C418.6,175 417.9,172 417.5,169C417.1,166 416.1,162.3 415.4,160.8C412.6,155.4 413.4,154.2 420,153.4C423.3,153 426,152.3 426,151.9C426,151.4 427.9,151 430.3,150.9C436.8,150.8 444.4,149.4 444.8,148.1C445,147.5 446.2,147 447.6,147C452.3,147 464.5,144.5 465.8,143.3C468.3,140.9 469.6,143 470.6,150.8C471.2,155 471.5,159 471.3,159.6C471.1,160.2 467,161.2 462.2,161.8C457.5,162.3 453.4,163.3 453.2,163.9C453,164.5 451.4,165 449.7,165C445.5,165 439,166.9 439,168C439,169.5 436.2,169.2 435.7,167.8C435.5,167.1 434.9,166.9 434.4,167.3C433.9,167.8 434.2,168.7 435.1,169.3C436.1,170 437,172.8 437.4,176.3C438.1,181.8 438.3,182 441.1,182C442.7,182 444,181.6 444,181.1C444,180.7 445.9,180 448.3,179.7C457.7,178.5 464.4,177 465,176C465.8,174.7 471.2,173.7 472.6,174.7C473.8,175.6 476.3,189.7 475.5,191.1C475.1,191.6 473.3,192 471.4,192C469.5,192 468,192.4 468,192.9C468,193.4 465.6,194.1 462.8,194.4C451.7,195.6 448,196.2 448,197.1C448,197.6 446.4,198 444.4,198C441.6,198 441,198.3 441.8,199.3C442.7,200.4 443.1,202.7 444.6,213.8C445.2,218 445.8,218.7 447.6,217.2C448.9,216 456.2,214 459.2,214C460.5,214 462.1,213.5 462.6,213C463.2,212.4 466.5,211.5 470.1,210.9C473.6,210.3 477.9,209.2 479.7,208.4C481.4,207.6 483.4,207.2 484.2,207.5C485.4,208 488,218.2 488,222.4C488,224.5 482.1,227.3 480.4,226C479.6,225.2 479.1,225.3 478.8,226.1C478.6,226.7 475.5,227.7 472,228.1C468.5,228.6 465.2,229.4 464.6,229.9C463.1,231.1 453.7,233 449.5,233C447.7,233 446,233.5 445.8,234.2C445.6,234.8 443.5,235.4 441.3,235.4C439,235.5 436.8,235.8 436.4,236.3C435.6,237.1 434.2,237.1 432.3,236.3Z" style="fill:white;fill-rule:nonzero;"/>
        <path d="M296.4,231.5C292.2,230.4 286,227 286,225.8C286,225.4 284.7,224.4 283.1,223.5C281.2,222.6 279.9,220.9 279.5,219.1C279.2,217.4 277.7,214.4 276.3,212.4C274.9,210.3 273.6,207.1 273.3,205.3C272.8,202.3 272.4,202 269.4,202C267.5,202 266,201.6 266,201C266,200.5 265.3,200 264.5,200C263.7,200 263,199.1 263,198C263,196.9 263.4,196 263.9,196C264.5,196 266,195 267.3,193.8C269.4,191.7 269.8,190.4 270.3,180.5C270.9,171.8 271.4,168.9 273,166.8C274.1,165.3 275,163.6 275,163C275,162.5 275.5,162 276,162C276.6,162 276.9,161.7 276.8,161.2C276.3,159.9 280.5,155.3 282.8,154.6C284,154.2 285,153.2 285,152.5C285,151.7 286.2,150.8 287.8,150.4C292.9,149.3 294.5,148.7 295,147.9C295.3,147.5 299.1,146.8 303.5,146.5C310.9,145.8 311.8,146 316.9,148.7C320,150.2 323,152.1 323.8,152.8C324.5,153.4 325.8,154 326.6,154C327.4,154 328.4,154.8 328.7,155.8C329.4,157.6 330.4,158.9 333.3,162.1C334.2,163.1 335.6,166 336.2,168.5C336.9,171 337.8,173 338.2,173C338.6,173 339,173.9 339,174.9C339,177.9 340.1,180 341.6,180C342.4,180 343,180.4 343,180.9C343,182.1 349.6,183.3 352,182.5C354.6,181.7 354.9,180.3 356.2,165.1C356.8,157.6 357.8,151.2 358.4,150.8C359.8,149.9 368.4,151 368.8,152.2C369,152.6 370.7,153 372.6,153C375.3,153 376,153.4 376,155C376,156.1 376.8,158.4 377.8,160.2C378.9,162 380.3,165.9 381,168.8C381.8,171.6 382.7,174 383.1,174C383.5,174 384.1,176 384.4,178.4C384.8,180.8 385.8,183.4 386.5,184C387.3,184.7 388,186.3 388,187.6C388,188.9 388.5,190 389,190C389.6,190 390,189.6 390,189C390,188.5 390.9,188 392,188C393.6,188 394,187.3 394,184.5C394,182.5 394.7,179.9 395.5,178.6C396.4,177.3 397.3,172.6 397.7,166.9C398.4,156.9 400,153.3 402.3,156.3C403,157.3 405.4,158 408.5,158.2L413.5,158.5L413.3,162.5C412.9,174.2 412,182.4 411.1,182.9C410.6,183.2 409.9,185.2 409.5,187.3C408.9,190.5 409,191 410.7,191C412.9,191 418,195 418,196.7C418,197.3 415.6,198.2 412.6,198.5C407.9,199.1 407.3,199.4 407.8,201.2C408,202.2 407.8,204.1 407.2,205.3C406.6,206.5 405.9,212 405.6,217.4C405.2,223.7 404.6,227.7 403.8,228.2C403.1,228.7 399.7,228.9 396.2,228.7C389.2,228.2 386.8,226.5 385.7,221.5C385.4,219.8 384.6,217.2 383.9,215.5C383.2,213.9 382.6,212.3 382.6,212C382.5,211.7 382.2,211.1 381.9,210.5C381.5,210 380.9,208 380.5,206.3C380.2,204.5 379.4,203 378.9,203C378.4,203 378,202.2 378,201.3C378,200.3 377.3,198.2 376.5,196.6C375.7,195.1 375.2,193.4 375.5,193C376.5,191.4 374.2,191 373,192.5C372.3,193.3 370.9,194 369.9,194C368.5,194 368,194.7 368,196.5C368,197.9 367.7,199 367.3,199C366.8,199 366.7,201.3 366.9,204.1C367.1,207 366.7,209.7 366.1,210.3C365.5,210.9 365,213.5 365,216C365,223.1 363.8,223.9 355.3,223.3C350.8,222.9 347.9,222.3 347.6,221.5C347,219.8 349.1,212.7 350.5,211.8C351.1,211.3 351.1,211 350.3,211C348.8,211 348.6,206.3 350,205.8C350.6,205.6 351.2,202.8 351.4,199.5C351.6,196.2 352,192.8 352.4,191.9C352.9,190.8 352.5,190.1 351.3,189.7C350.3,189.3 348.8,188.5 347.9,187.9C345.5,186.1 341.1,189.6 341,193.3C341,194.8 341.5,196 342,196C342.6,196 343,196.9 343,198C343,199.1 342.6,200 342,200C341.5,200 341,201.8 341,204C341,208.4 339,216 337.8,216C337.3,216 337,216.5 337,217.1C337,218.7 327.3,228 325.6,228C324.9,228 323.7,228.6 323.1,229.4C320.7,232.3 304.2,233.6 296.4,231.5ZM312.9,214.9C314.6,214.3 316,213.4 316,212.9C316,212.4 316.7,212 317.5,212C318.4,212 319.4,211.2 319.7,210.3C320.1,209.3 321.2,207.4 322.2,206.1C324,203.7 324.7,195.6 323.2,193.4C322.8,192.8 320.8,192 318.8,191.6C316.5,191.2 315,190.3 315,189.5C315,188.7 315.4,188 315.9,188C316.5,188 318.1,186.8 319.7,185.4C321.8,183.5 322.4,182.1 322.1,179.7C321.6,174.2 315.5,166.7 310.7,165.5C309.2,165.1 308,164.4 308,163.9C308,163.4 306.2,163 304,163C301.8,163 300,163.4 300,163.9C300,164.4 298.7,165.1 297.1,165.5C295.3,165.9 293.2,167.5 291.8,169.6C290.6,171.4 289.2,173 288.9,173C287.9,173 286.8,185.7 287.5,188.1C288.1,189.8 288.4,190 289.1,188.9C289.6,188 290,187.9 290,188.7C290,189.3 291.4,190.1 293,190.5C296.6,191.3 296.9,193.6 293.6,195.2C292.2,195.8 290.8,197 290.5,197.8C289.3,201.1 294.6,212 297.5,212C298.2,212 299,212.6 299.3,213.4C300.2,215.8 307.9,216.6 312.9,214.9ZM373,184.8C371.9,183.6 371,182 371,181.3C371,180.6 370.6,180 370,180C368.2,180 368.9,183.2 371.2,185.1C374.1,187.7 375.5,187.5 373,184.8Z" style="fill:white;fill-rule:nonzero;"/>
        <path d="M255.5,230C255.2,229.5 252.9,229 250.5,229C248.1,229 245.5,228.7 244.6,228.4C242.7,227.7 242.4,224 244.2,224C245.1,224 245.1,223.7 244.2,222.8C242.7,221.3 242.6,216.3 244,215.8C244.6,215.6 245.2,211.2 245.3,205.2L245.5,195L234.8,195C229,195 223.4,194.7 222.4,194.3C221.3,193.9 220.9,194 221.4,194.8C221.8,195.4 221.8,203.1 221.4,212L220.7,228L213.3,228C204.4,228 202,227 202,223C202,221.5 202.4,220 203,219.8C203.6,219.6 204.1,213.1 204.2,204.2C204.5,190.5 204.3,188.8 202.8,187.9C201.8,187.3 201,186 201,185C201,184 200.6,182.8 200,182.5C199.5,182.2 199,180.7 199,179.3C199,176.7 199.8,176.6 205,178.2C205.8,178.5 206.2,178.5 205.8,178.3C205.3,178 205.8,150.9 206.4,150.3C206.8,149.8 210.5,149.7 216.8,149.8L223.1,150L222.8,164.5L222.5,179L228,179C231,179 236.5,179.3 240.3,179.7L247,180.3L247,167.1C247,156.4 247.3,153.6 248.6,152.3C249.7,151.1 250.4,151 251.3,151.9C252.8,153.4 261.7,153.3 262.2,151.8C262.5,150.9 263,150.9 264.2,152C265.3,153.1 265.6,155.1 265.2,161C265,165.1 264.4,168.9 263.9,169.4C262.7,170.8 262.8,177 264,177C265.2,177 265.3,179.7 264.1,180.2C263,180.6 260.8,222.2 261.7,227.3C262.2,230.9 262.2,231 259.2,231C257.5,231 255.8,230.6 255.5,230Z" style="fill:white;fill-rule:nonzero;"/>
        <path d="M515.6,222.3C515.2,218.6 514.8,214.4 514.7,213C514.4,209.5 511.3,207 507.3,207C502.6,207 503,204.6 508,203.1C512.6,201.7 513,200.3 509.6,196.9C508.3,195.6 507,193.5 506.6,192.3C506.2,191 505.3,190 504.5,190C503.7,190 502.8,189.1 502.5,188C502.2,186.9 501.5,186 501,186C500.5,186 499.9,184.6 499.5,183C499.1,181.3 498,179.5 496.9,179C495.9,178.4 495,177.2 495,176.2C495,175.3 493.6,173.2 491.9,171.5C490.2,169.9 488.1,167.3 487.2,165.8C486.3,164.2 485.2,163 484.8,163C484.4,163 484,162.1 484,161.1C484,158.8 486.8,157.7 490.2,158.5C491.5,158.8 494.4,158.7 496.5,158.3C501.9,157.1 503.7,157.6 504.4,160.6C504.8,161.9 505.5,163 506,163C506.6,163 507,163.5 507,164.2C507,164.8 507.7,166 508.5,166.9C510.9,169.4 515,175.9 515,177.3C515,178 515.9,179.6 516.9,181L518.8,183.5L519.5,180.7C519.9,179.2 520.6,178 521,178C521.4,178 522.3,174.6 522.9,170.5C523.6,166.4 524.5,163 524.9,163C525.3,163 525.4,161.4 525.2,159.5C524.6,154.2 526.2,153 533.6,153C537.2,153 540,152.6 540,152C540,151.5 541.4,151 543,151C545.3,151 546,151.4 546,153C546,154.1 545.6,155 545,155C544.5,155 544,156.6 544,158.5C544,160.4 543.4,162.2 542.6,162.7C541.8,163.1 540.5,165.8 539.8,168.5C539.1,171.3 538.2,173.7 537.9,174C537.5,174.3 536.7,177.1 536,180.3C535.3,183.4 534.4,186 534,186C533.7,186 532.7,188.3 532,191.1C531.2,193.8 530.2,196.3 529.8,196.6C528,197.7 529.2,198.8 533.1,199.4C536.2,199.9 537.1,200.4 536.8,201.8C536.6,202.7 535.5,203.6 534.2,203.8C533,204 532,204.6 532,205.1C532,205.6 531.3,206 530.5,206C529.7,206 529,206.5 529,207C529,207.6 529.4,208 529.9,208C530.3,208 531,210.6 531.4,213.8C531.8,216.9 532.3,221.1 532.6,223.2L533.2,226.8L527.4,227.3C524.1,227.6 520.3,228.1 518.9,228.5C516.3,229.2 516.3,229.1 515.6,222.3Z" style="fill:white;fill-rule:nonzero;"/>
        <path d="M300.6,143.8C300.3,143.1 299.9,140.5 299.5,138C298.1,128.4 297.8,127 297,127C296.6,127 295.6,123.1 294.9,118.3C293.6,109.6 293.6,109.5 288.2,104.3C282.1,98.3 281.9,96 287.5,96C290.8,96 291.1,95.8 290.4,93.8C290,92.5 289.4,91.3 289,91C288.6,90.7 287.7,87.2 287,83.3C285.9,76.2 284,73.4 284,78.6L284,81.2L276.8,80.5C272.8,80.1 269.3,79.4 269,79C268.7,78.6 267.3,78 265.9,77.7L263.3,77L262,88.9C260.8,100 260.8,100.8 262.6,102.8C263.6,104 265,105 265.7,105C266.4,105 267,105.9 267,107C267,108.5 266.1,109.1 263.1,109.6C258.8,110.3 259,109.6 257.4,126.8C257,130.7 256.3,134 255.9,134C255.4,134 255,135.1 255,136.4C255,139.8 252.3,142.2 249.6,141.4C248.5,141 247.4,140.3 247.2,139.9C247,139.4 244.9,139 242.5,139C240.1,139 237.9,138.7 237.7,138.3C237.1,137.2 238.8,124.9 239.9,122.5C240.4,121.4 241.1,117.9 241.4,114.7C241.9,109.8 241.8,108.9 240.3,108.3C239.3,107.9 238.1,107.1 237.7,106.3C237.3,105.6 236.2,105 235.5,105C234.7,105 234,104.1 234,103.1C234,101.8 234.9,101 237,100.5C238.7,100.1 240,99.4 240,98.9C240,98.4 240.9,98 241.9,98C243.3,98 243.7,97.5 243.3,96C243,94.9 243.4,92.5 244.3,90.8C245.1,89 246,85 246.3,81.9L246.8,76.2L242.2,75.5C239.6,75.1 237.1,74.3 236.7,73.7C236.1,72.8 235.7,72.8 235.3,73.8C234.6,75.5 229.2,75.3 227.4,73.6C225.9,72 225.5,69 226.8,69C227.3,69 227.5,66.6 227.3,63.6C227.1,60 227.5,57.9 228.3,57.1C229.7,56 240,56.7 240,58C240,58.4 245.3,59.2 251.8,59.9C258.2,60.6 264.3,61.6 265.2,62.1C266.2,62.6 268.4,63 270.2,63C272,63 275.3,63.5 277.5,64C281.4,64.9 295.9,63.4 297,62C297.3,61.6 300.9,61 305,60.7C309.7,60.3 312.9,59.6 313.5,58.6C314.4,57.4 318.1,56.7 328.2,55.7C329.6,55.6 331.2,55.2 331.6,54.8C332,54.3 333.1,54 334.1,54C335.9,54 337,56.7 337,61.8C337,63.5 337.5,65 338.1,65C338.7,65 339,66.2 338.8,67.8C338.5,70.4 338.2,70.5 329.5,71.8C324.6,72.6 320.4,73.6 320.2,74.1C320,74.6 318.4,75 316.5,75C314.7,75 311.5,75.6 309.4,76.4C307.2,77.1 305,77.5 304.3,77.3C302.7,76.7 303.8,83.7 305.6,86.5C306.4,87.6 307,89.4 307,90.5C307,91.6 307.3,92 307.8,91.5C308.2,90.9 312.1,89.8 316.5,89.1C320.9,88.4 324.7,87.4 325,87C325.5,86.3 329.3,85.4 336.1,84.4C339.5,83.8 339.7,84 340.4,87C340.7,88.8 341,91.5 341,93.1C341,94.7 341.5,96 342,96C342.6,96 343,97.1 343,98.4C343,100.7 342.6,100.8 334.8,101.5C330.2,101.9 326.2,102.7 325.9,103.2C325.5,103.7 321.7,104.6 317.3,105.2L309.3,106.2L310.6,109.9C311.3,111.9 311.9,115.2 312,117.3C312,119.3 312.5,121 313.1,121C313.8,121 314,121.9 313.7,123.1C313.2,124.9 313.5,125.1 316.3,124.4C318.1,124.1 320.4,123.1 321.5,122.4C322.6,121.6 325.3,121 327.5,121C329.7,121 332.4,120.4 333.5,119.6C334.6,118.9 337.5,118 340,117.7C342.5,117.4 346.1,116.8 348.1,116.5L351.8,115.8L352.5,121.9C352.9,125.2 353.5,128 354,128C354.4,128 355.3,126.7 356,125C356.7,123.4 357.6,122 358.1,122C358.6,122 359.6,120.5 360.4,118.8C362.1,115 365.2,109.7 366.1,109C367.3,108.1 369.8,101.2 369.2,100.6C368.9,100.3 367.9,100 366.9,100C365.5,100 364,98.2 364,96.4C364,96.2 365.4,96 367,96C370.3,96 370.8,94.9 368.5,93C367.7,92.3 367,91.2 367,90.6C367,90 366.2,88.7 365.3,87.8C362.3,85 361.4,83.6 360.7,80.8C360.3,79.3 359.4,77.5 358.7,76.8C358.1,76.1 356.7,73.8 355.8,71.7C354.8,69.6 353.3,67.7 352.5,67.4C351.7,67 351,66 351,65.1C351,63.5 352.2,63.3 360.1,63.3C368.2,63.2 369.3,63.5 369.7,65.1C370,66.2 370.6,67 371,67C371.5,67 372.3,68.4 372.9,70C373.4,71.7 374.3,73 374.8,73C375.3,73 376.8,75.4 378.1,78.4C380.5,84.1 382,84.8 382,80.2C382,78.6 382.8,77 384,76.2C385.1,75.5 386,74.3 386,73.5C386,72.7 386.4,72 386.9,72C387.4,72 388.1,70.3 388.5,68.3C388.9,66.2 390.1,63.7 391.2,62.6C392.9,61 393.5,60.9 395.5,62C397.1,62.8 399.9,63.1 403.5,62.7C408.8,62.2 409,62.2 409,64.5C409,65.8 408.1,67.5 407.1,68.2C406,69 404.8,70.9 404.4,72.5C404,74.2 402.8,76.1 401.8,76.8C400.8,77.5 400,78.8 400,79.6C400,80.4 399.6,81 399,81C398.5,81 397.8,82.5 397.5,84.4C397.1,86.3 395.7,88.7 394.4,89.9C391.1,92.7 391.2,96 394.5,96C397.9,96 397.6,97.2 393.9,98.9C391.3,100.1 391,100.4 392.4,101.2C393.3,101.7 394,102.8 394,103.5C394,104.3 394.4,105 394.8,105C395.2,105 396.2,106.7 397,108.8C398.3,112.4 402.7,118 404.2,118C404.7,118 405,116.9 405,115.5C405,114.1 404.6,113 404.1,113C402.3,113 400,109.8 400,107.4C400,105.1 400.3,105 403.8,105.6L407.7,106.2L409,98.4C409.7,94 410.6,90.1 411,89.5C412.1,87.9 414,79.5 414,76.1C414,74.4 414.5,73 415,73C415.6,73 416,71.4 416,69.5C416,65.8 418.5,63.6 420,66C420.5,66.8 420.9,66.9 421.4,66.1C421.8,65.5 424.8,65 428.1,65C433.2,65 434,65.3 434,66.8C434,67.9 434.9,69.7 435.9,70.9C437,72.1 438.1,74.9 438.5,77C438.9,79.1 439.7,81.1 440.5,81.4C441.2,81.6 442.1,83.2 442.5,84.9C442.9,86.6 443.5,88 444,88C444.5,88 445.4,89.7 446,91.8C446.7,93.8 447.7,96 448.4,96.5C450.4,98.3 453.8,105.5 454.5,109.3C454.9,111.3 455.6,113 456,113C456.5,113 457.1,114 457.3,115.3C457.5,116.5 457.8,115.4 457.9,112.8C458,108.1 458,108.1 461.3,108.5C463,108.8 466.6,109.2 469.3,109.5C473.8,110.1 474,110.2 474,113.4C474,116.9 476.5,120.3 481.4,123.5C483.5,124.9 485.2,125.1 489.7,124.6C496.2,123.8 498.6,122.2 499.6,117.7C500.1,115.1 499.8,114.3 497,111.8C493.3,108.6 491.2,108.3 490.3,110.7C489.4,113.1 486,116.3 485.2,115.5C484.8,115.2 483.8,112.5 483,109.7C481.8,105.7 480.9,104.4 479.2,104.2C478,104 477,103.4 477,102.9C477,102.4 476.3,102 475.4,102C473.3,102 465,93.2 465,90.9C465,89.9 464.6,88.8 464,88.5C462.8,87.8 462.6,76.3 463.8,75.8C464.2,75.7 465.3,73.9 466.3,72C471,62.8 473.1,60.4 477.1,59.5C478.7,59.1 480,58.4 480,57.9C480,56.4 494.9,56.8 496.6,58.4C497.3,59.2 499.7,60.1 501.7,60.5C507.8,61.5 518.1,72 517.2,76.3C517.1,76.7 517.4,77 518,77C519.5,77 519.2,85.2 517.6,87.2C516.6,88.6 515.2,88.9 511.3,88.6C505.4,88.1 502,86.3 502,83.6C502,82.6 500.9,80.2 499.4,78.3C497.6,75.9 496.1,75 493.9,75C492.3,75 491,74.6 491,74C491,73.5 489.4,73 487.5,73C485.6,73 484,73.4 484,73.9C484,74.4 483.1,75.2 482,75.5C480.4,76 480,77 480,80.6C480,83 480.4,85 480.9,85C481.4,85 482.6,85.7 483.5,86.6C485,88.1 485.2,88.1 486.8,85.9C489,82.8 491.8,80 492.9,80C493.3,80 494.1,82.8 494.6,86.2C495.5,92.4 495.5,92.4 499.4,93.4C504.3,94.5 505.5,95.4 513.4,104C516.2,107.1 516.3,107.2 515.6,115.8C515.2,120.6 514.3,124.8 513.7,125.2C513,125.6 512.9,126 513.3,126C513.7,126 513.6,126.6 513.1,127.3C504.2,138.3 499.7,141 490,141C486.2,141 483,140.5 482.8,140C482.6,139.4 480.1,138.6 477.2,138.1C474.3,137.7 471.2,136.6 470.2,135.8C469.3,135 467.7,134 466.8,133.7C465.8,133.3 465,132.5 465,131.8C465,131.1 464,129.6 462.7,128.5C460.9,126.9 459.1,126.5 453,126.5C448.9,126.5 445,126.1 444.4,125.5C443.7,124.9 442.9,122.5 442.5,120.2C441.9,116.2 441.7,116 438.2,116C433,116.1 421,117.7 420.2,118.4C419.9,118.8 419.7,120.7 419.8,122.8C420.1,127 417.3,131 414.1,131C412.9,131 412.3,131.7 412.4,132.8C412.5,134.3 411.4,134.5 402.5,134.5C392.9,134.5 392.5,134.4 392.2,132.3C392,131 391.4,130 390.9,130C390.3,130 389.2,128.3 388.3,126.3C387.5,124.2 386.4,122.3 386,122C385.6,121.7 384.5,119.8 383.5,117.7C381.9,114.2 381.6,114 380.7,115.6C380.1,116.7 378.8,118.4 377.8,119.4C376.8,120.5 376,122.2 376,123.2C376,124.2 375.4,125.3 374.6,125.6C373.9,125.9 373,127.8 372.6,130C371.9,134.5 370.9,135 362.6,135C359.2,135 355.9,135.5 355.3,136.1C354,137.4 352,136.5 352,134.6C352,133.2 345.7,133 344.4,134.3C344,134.7 342,135 339.9,135C337.8,135 335.9,135.4 335.6,135.9C335.3,136.4 332.1,137.4 328.5,138.1C324.9,138.8 322,139.7 322,140.1C322,140.4 318.1,141.1 313.4,141.5C307.5,142 304.7,142.6 304.3,143.6C303.7,145.3 301.1,145.4 300.6,143.8ZM427,103C427,103.5 429,104 431.5,104C435.9,104 437.5,102.8 434.5,101.6C433.7,101.3 433,100 433,98.7C433,97.4 432.1,95.3 431,94C429.9,92.7 429,90.9 429,89.9C429,88.9 428.5,87.8 428,87.5C427.4,87.1 427.3,86.4 427.6,85.8C428,85.2 427.9,85 427.3,85.3C426.7,85.7 426,88.3 425.7,91.2C425.3,94.1 424.6,96.6 424,96.8C423.4,97 423.4,97.8 424.1,99.1C424.8,100.6 424.7,101.4 423.5,102.6C421.2,104.9 421.7,105.4 424.5,103.6C425.9,102.7 427,102.4 427,103Z" style="fill:white;fill-rule:nonzero;"/>
    </g>
</svg>
