<!DOCTYPE svg PUBLIC "-//W3C//DTD SVG 20010904//EN" "http://www.w3.org/TR/2001/REC-SVG-20010904/DTD/svg10.dtd">
<svg version="1.0" xmlns="http://www.w3.org/2000/svg" width="764px" height="666px" viewBox="0 0 7640 6660" preserveAspectRatio="xMidYMid meet">
<g id="layer101" fill="#000000" stroke="none">
 <path d="M4040 2956 c0 -20 -4 -36 -9 -36 -5 0 -15 -39 -22 -86 -10 -72 -17 -91 -41 -114 l-28 -28 0 140 0 141 -142 -6 c-78 -4 -144 -11 -147 -15 -3 -5 -19 -12 -34 -16 -34 -8 -92 -63 -102 -97 -4 -13 -12 -27 -17 -30 -4 -3 -10 -24 -12 -47 -3 -23 -11 -49 -19 -57 -13 -12 -16 -6 -26 45 -7 33 -16 60 -22 60 -5 0 -9 6 -9 13 0 7 -20 34 -44 61 l-45 48 -107 -4 c-73 -2 -109 -8 -112 -16 -2 -7 -23 -12 -53 -12 -27 0 -49 -4 -49 -10 0 -5 -9 -10 -19 -10 -11 0 -21 -6 -24 -12 -4 -10 -7 -10 -18 0 -18 17 -39 15 -39 -3 0 -8 -4 -15 -10 -15 -5 0 -10 -9 -10 -19 0 -31 -11 -52 -24 -43 -6 4 -38 12 -71 17 -58 10 -60 12 -57 39 4 38 -14 56 -54 56 -19 0 -34 5 -34 10 0 15 -19 12 -37 -6 -11 -10 -13 -18 -6 -22 15 -10 21 -114 7 -119 -7 -2 -13 16 -16 50 -7 89 -50 127 -146 127 -25 0 -96 -5 -159 -12 l-115 -12 7 -60 c4 -34 12 -66 17 -73 14 -18 15 -132 1 -141 -16 -10 -27 -58 -14 -66 6 -4 19 -1 30 6 11 7 24 8 28 4 4 -5 2 -11 -4 -13 -15 -5 -17 -40 -4 -45 6 -1 12 -29 15 -61 2 -33 7 -61 10 -64 9 -9 136 8 136 18 0 5 17 9 38 9 53 1 108 15 127 33 8 9 24 18 35 22 42 13 39 140 -5 181 -14 13 -21 24 -16 24 6 0 11 7 11 15 0 10 10 15 33 15 l33 0 12 -82 c8 -45 18 -90 23 -100 6 -10 11 -37 12 -58 1 -37 3 -40 32 -41 16 0 45 -2 63 -5 27 -3 34 0 42 21 5 14 14 25 19 25 5 0 12 16 15 35 4 19 13 40 20 47 7 8 19 30 25 51 7 20 16 37 20 37 4 0 13 16 20 35 7 19 16 35 20 35 5 0 11 17 15 38 3 20 10 44 16 52 9 13 11 13 20 0 5 -8 10 -33 10 -55 0 -22 4 -47 9 -55 7 -10 2 -19 -20 -32 -30 -18 -39 -38 -16 -38 7 0 25 -6 39 -12 23 -11 27 -20 33 -80 3 -38 10 -68 16 -68 5 0 9 -13 9 -30 0 -27 3 -30 34 -30 19 0 36 4 38 10 2 5 38 15 81 22 42 6 77 15 77 19 0 4 10 9 23 13 12 3 37 18 55 34 26 24 34 40 39 81 3 28 10 51 14 51 14 0 29 -37 29 -70 0 -18 6 -33 15 -36 8 -4 15 -15 15 -25 0 -11 7 -22 15 -25 8 -4 15 -11 15 -16 0 -5 14 -23 31 -40 22 -22 42 -32 75 -36 24 -2 44 -9 44 -13 0 -5 20 -9 45 -9 25 0 45 4 45 9 0 5 14 11 31 15 31 6 79 47 79 67 0 5 4 9 9 9 5 0 14 12 20 28 12 29 12 31 -6 -45 -4 -18 -1 -23 16 -23 11 0 21 -4 21 -9 0 -5 36 -13 81 -17 44 -4 86 -12 92 -18 10 -10 157 -39 163 -33 2 1 6 30 9 64 l7 61 -66 7 c-36 4 -66 11 -66 15 0 7 -26 12 -101 22 -13 2 -14 6 -2 28 7 14 13 33 13 43 0 9 5 17 11 17 30 0 145 -25 150 -32 3 -5 21 -11 41 -14 34 -6 35 -5 41 32 4 22 7 51 7 67 0 25 -3 27 -39 27 -22 0 -42 4 -45 9 -4 5 -25 12 -49 16 -95 14 -98 15 -87 35 6 10 10 31 10 47 0 15 4 33 8 40 8 13 62 6 62 -8 0 -5 10 -9 22 -9 37 0 143 -24 149 -34 4 -5 14 -6 22 -3 18 7 35 114 21 127 -5 4 -42 12 -83 18 -41 6 -77 15 -80 20 -3 5 -37 14 -76 20 -38 6 -85 14 -102 18 -32 6 -33 6 -33 -30z m-1646 -128 c5 -10 7 -10 12 0 3 6 12 12 20 12 18 0 54 -31 48 -42 -3 -4 1 -8 8 -8 8 0 9 -3 3 -8 -5 -4 -15 -16 -21 -27 -8 -14 -27 -22 -69 -28 -66 -9 -84 4 -85 61 0 29 3 32 30 32 17 0 30 5 30 10 0 14 17 12 24 -2z m1376 3 c0 -5 8 -12 18 -16 11 -3 24 -17 30 -30 12 -25 11 -25 -43 -25 l-55 0 0 -60 c0 -41 4 -60 13 -61 6 0 62 0 123 1 l112 1 -8 -41 c-8 -46 -20 -64 -20 -31 0 20 -4 22 -57 19 -40 -2 -57 -7 -55 -15 1 -7 -3 -13 -8 -13 -5 0 -10 -6 -10 -13 0 -19 -47 -57 -70 -57 -11 0 -20 4 -20 9 0 6 -15 11 -32 13 -23 2 -36 10 -43 26 -5 12 -13 22 -18 22 -4 0 -6 4 -2 9 3 5 1 12 -5 16 -21 13 -10 54 20 72 35 20 39 33 10 33 -11 0 -20 5 -20 10 0 6 -7 10 -16 10 -11 0 -14 6 -8 23 3 12 11 24 15 25 5 2 9 14 9 27 0 16 7 25 25 29 14 4 25 11 25 16 0 6 20 10 45 10 25 0 45 -4 45 -9z m-490 -21 c8 -5 15 -13 16 -17 0 -4 6 -21 13 -38 18 -44 24 -115 14 -155 -8 -32 -14 -36 -56 -44 -26 -4 -47 -12 -47 -17 0 -5 -6 -9 -14 -9 -10 0 -17 16 -21 48 -4 26 -8 51 -9 57 -3 12 19 35 33 35 6 0 11 5 11 10 0 6 -9 10 -20 10 -11 0 -20 5 -20 10 0 6 -7 10 -16 10 -10 0 -13 6 -10 18 3 9 2 32 -3 49 -8 26 -6 33 7 36 32 9 107 7 122 -3z m-456 -127 c-4 -16 -13 -33 -20 -39 -8 -6 -14 -20 -14 -30 0 -14 -4 -12 -15 10 -8 15 -15 35 -15 44 0 18 29 41 53 42 14 0 16 -5 11 -27z m-329 -100 c1 -15 -5 -25 -19 -29 -12 -4 -23 -10 -26 -14 -3 -4 -29 -11 -59 -15 -52 -7 -54 -7 -48 15 3 12 2 32 -3 44 -8 21 -6 22 73 21 76 0 80 -1 82 -22z"/>
 <path d="M5003 2963 c-18 -2 -33 -8 -33 -12 0 -4 -15 -12 -34 -19 -19 -7 -36 -21 -39 -32 -3 -11 -10 -20 -15 -20 -6 0 -8 9 -5 20 5 18 0 20 -50 20 -30 0 -62 3 -71 6 -12 5 -16 0 -16 -19 0 -14 -5 -29 -11 -33 -6 -3 -9 -22 -7 -40 2 -19 1 -34 -3 -34 -4 0 -9 -15 -11 -32 l-3 -33 -77 0 c-69 0 -97 7 -69 17 5 2 12 38 15 81 3 43 8 82 11 86 3 5 2 16 -1 25 -5 12 -20 16 -64 16 -68 0 -70 -4 -69 -90 1 -32 -3 -56 -10 -58 -6 -2 -11 -18 -11 -36 0 -36 -26 -96 -41 -96 -5 0 -9 -9 -9 -20 0 -14 7 -20 21 -20 20 0 20 -3 13 -92 -4 -51 -11 -96 -16 -99 -6 -4 -8 -15 -6 -25 3 -15 13 -19 48 -21 25 -1 95 -5 156 -9 129 -8 174 2 195 44 8 15 18 30 24 34 5 4 9 39 8 78 -2 60 -6 74 -24 89 l-23 18 27 18 c22 14 27 26 28 59 1 22 3 33 6 24 2 -10 8 -19 11 -19 40 -7 63 -6 67 2 4 5 15 9 26 9 13 0 19 7 19 22 0 11 15 34 33 50 27 26 38 29 74 25 72 -8 96 -49 51 -88 -27 -22 -38 -24 -38 -6 0 12 -34 47 -45 47 -3 0 -5 -12 -5 -26 0 -34 -17 -64 -36 -64 -21 0 -94 -73 -94 -93 0 -10 -4 -17 -10 -17 -16 0 -12 -96 5 -110 8 -7 15 -18 15 -25 0 -21 44 -63 73 -70 15 -4 27 -11 27 -16 0 -5 25 -9 55 -9 30 0 55 4 55 10 0 5 19 14 41 20 73 20 119 86 119 171 0 27 -2 29 -42 29 -68 0 -88 -9 -88 -38 0 -14 -11 -35 -25 -48 -14 -13 -25 -18 -25 -12 0 9 -3 9 -12 0 -15 -15 -48 -16 -48 -2 0 6 -7 10 -15 10 -8 0 -12 6 -9 14 3 8 0 17 -6 21 -8 5 -6 13 6 26 25 27 41 23 49 -11 4 -16 10 -30 14 -30 10 0 30 40 33 69 2 18 13 27 40 37 45 16 98 69 98 100 0 13 5 24 10 24 6 0 10 9 10 20 0 11 -4 20 -9 20 -5 0 -11 17 -14 38 -4 25 -20 52 -47 81 -39 41 -44 43 -103 46 -34 2 -77 1 -94 -2z m-385 -345 c2 -4 19 -8 37 -8 19 0 37 -5 41 -11 13 -22 5 -71 -15 -90 -22 -20 -51 -25 -51 -9 0 6 -21 10 -47 10 l-48 0 3 64 4 64 36 -5 c20 -4 39 -10 40 -15z"/>
 <path d="M4323 2363 c-7 -2 -13 -20 -13 -39 0 -38 -18 -123 -30 -139 -7 -9 -19 -80 -25 -146 -2 -16 -24 -48 -59 -82 -31 -32 -56 -63 -56 -71 0 -15 56 -30 73 -19 7 4 8 -2 3 -18 -4 -13 -10 -37 -13 -54 -3 -16 -9 -34 -13 -40 -4 -5 -11 -35 -15 -65 -4 -30 -14 -67 -21 -82 -28 -54 -20 -66 46 -74 33 -4 60 -11 60 -15 0 -5 19 -9 43 -10 65 -1 141 -15 145 -28 2 -6 14 -11 28 -11 47 0 169 -25 182 -37 25 -24 38 -3 48 75 6 42 9 82 7 88 -2 6 -43 16 -91 22 -47 5 -88 15 -90 21 -2 6 -18 11 -35 11 -42 0 -107 19 -107 30 0 15 -28 12 -33 -2 -2 -7 -8 -9 -13 -5 -5 5 -2 14 7 20 10 7 19 35 23 70 7 55 9 57 37 57 16 0 29 -4 29 -9 0 -4 19 -11 43 -14 94 -12 161 -27 167 -37 8 -13 62 -23 76 -13 12 9 37 150 29 164 -4 5 -22 9 -41 9 -19 0 -34 4 -34 9 0 5 -24 12 -52 15 -111 12 -148 18 -148 27 0 5 -16 9 -36 9 -28 0 -34 3 -26 13 9 11 13 34 28 145 6 42 12 49 30 34 13 -12 86 -32 116 -32 13 0 29 -5 34 -10 6 -6 39 -15 75 -21 35 -6 78 -17 96 -25 17 -8 37 -12 45 -9 12 5 38 107 38 149 0 21 -59 49 -76 36 -8 -8 -13 -7 -16 1 -2 6 -33 16 -68 20 -35 5 -68 13 -74 18 -15 12 -109 31 -151 31 -18 0 -35 5 -37 12 -2 6 -23 12 -45 12 -23 1 -45 4 -49 9 -8 8 -22 8 -41 0z"/>
 <path d="M2964 2315 c-42 -11 -104 -45 -104 -57 0 -4 -13 -14 -29 -23 -19 -9 -32 -26 -36 -44 -3 -17 -18 -47 -32 -67 -14 -21 -27 -53 -30 -71 -5 -30 -9 -33 -39 -33 -19 0 -34 -4 -34 -10 0 -5 -7 -10 -15 -10 -8 0 -15 -9 -15 -20 0 -11 4 -20 9 -20 6 0 21 -10 34 -22 21 -21 25 -34 30 -133 6 -87 11 -116 27 -137 11 -15 20 -32 20 -38 0 -5 5 -10 10 -10 6 0 9 -3 8 -8 -5 -13 37 -59 60 -66 12 -4 22 -14 22 -21 0 -8 12 -17 28 -21 51 -11 67 -17 72 -25 3 -4 41 -11 85 -14 74 -7 83 -5 134 22 31 15 61 34 69 41 7 6 20 12 28 12 8 0 18 8 21 18 7 18 17 31 46 63 9 10 23 39 29 64 7 25 16 45 20 45 4 0 8 9 8 19 0 30 11 51 26 51 8 0 14 4 14 9 0 12 66 24 90 16 26 -8 29 -22 42 -174 6 -75 16 -139 22 -143 14 -9 100 2 104 14 2 4 19 8 38 8 27 0 34 4 34 20 0 11 8 34 18 52 11 18 25 57 32 86 8 28 17 52 21 52 4 0 10 20 13 44 4 24 14 50 21 56 8 7 15 23 15 36 0 13 5 24 10 24 6 0 10 -4 10 -10 0 -5 9 -10 20 -10 16 0 20 -7 20 -35 0 -20 7 -46 15 -59 9 -13 18 -60 22 -117 7 -100 23 -136 46 -106 7 10 31 17 62 19 l50 3 -2 40 c-4 117 -13 199 -22 204 -5 3 -12 23 -16 44 -6 32 -5 37 12 37 22 0 73 40 73 57 0 6 -24 15 -54 18 -47 6 -53 9 -48 27 2 10 0 29 -6 41 -6 12 -13 67 -16 121 -4 63 -10 103 -18 108 -7 5 -41 7 -76 5 -70 -5 -94 -22 -105 -72 -3 -17 -11 -43 -18 -60 -7 -16 -13 -32 -13 -35 -1 -3 -4 -9 -7 -15 -4 -5 -10 -25 -14 -42 -3 -18 -11 -33 -16 -33 -5 0 -9 -8 -9 -17 0 -10 -7 -31 -15 -47 -8 -15 -13 -32 -10 -36 10 -16 -13 -20 -25 -5 -7 8 -21 15 -31 15 -14 0 -19 7 -19 25 0 14 -3 25 -7 25 -5 0 -6 23 -4 51 2 29 -2 56 -8 62 -6 6 -11 32 -11 57 0 71 -12 79 -97 73 -45 -4 -74 -10 -77 -18 -6 -17 15 -88 29 -97 6 -5 6 -8 -2 -8 -15 0 -17 -47 -3 -52 6 -2 12 -30 14 -63 2 -33 6 -67 10 -76 5 -11 1 -18 -11 -22 -10 -4 -25 -12 -34 -18 -24 -18 -68 17 -69 54 0 15 5 27 10 27 6 0 10 9 10 20 0 11 -4 20 -10 20 -5 0 -10 18 -10 40 0 44 -20 120 -32 120 -5 0 -8 5 -8 11 0 16 -97 109 -114 109 -7 0 -19 6 -25 14 -24 29 -189 42 -267 21z m165 -166 c17 -6 31 -15 31 -20 0 -5 7 -9 15 -9 9 0 19 -8 22 -17 4 -10 15 -29 25 -42 18 -24 25 -105 10 -127 -4 -6 -24 -14 -44 -18 -23 -4 -38 -13 -38 -21 0 -8 4 -15 9 -15 6 0 22 -12 38 -26 21 -19 27 -33 24 -57 -5 -55 -66 -130 -114 -142 -15 -4 -27 -11 -27 -16 0 -5 -18 -9 -40 -9 -22 0 -40 4 -40 9 0 5 -13 12 -29 16 -18 4 -39 20 -53 41 -12 18 -26 34 -29 34 -10 0 -21 127 -14 151 6 17 9 19 16 8 5 -9 9 -10 9 -2 0 6 14 14 30 18 36 8 39 31 6 47 -14 6 -28 18 -31 26 -12 33 41 142 70 142 7 0 15 6 18 14 9 24 86 32 136 15z m601 -301 c-11 -12 -20 -28 -20 -35 0 -7 -4 -13 -10 -13 -18 0 -11 32 12 51 29 26 43 24 18 -3z"/>
 <path d="M2555 2300 c-3 -5 -26 -10 -50 -10 -24 0 -50 -3 -59 -6 -19 -7 -22 -44 -4 -44 9 0 9 -3 0 -12 -15 -15 -16 -65 -2 -70 6 -2 12 -46 13 -106 l2 -102 -107 0 c-58 0 -114 -3 -124 -7 -11 -4 -15 -3 -10 5 4 6 4 83 0 172 l-7 160 -74 0 c-89 0 -113 -10 -113 -50 0 -15 4 -30 10 -32 6 -2 11 -67 12 -156 3 -137 1 -154 -14 -163 -10 -6 -18 -19 -18 -29 0 -10 -4 -22 -10 -25 -5 -3 -10 -18 -10 -32 0 -26 8 -27 60 -11 8 3 12 3 8 1 -5 -3 0 -274 6 -280 4 -5 41 -6 104 -5 l63 2 -3 145 -3 145 55 0 c30 0 85 3 123 7 l67 6 0 -132 c0 -107 3 -135 16 -148 11 -12 18 -13 27 -4 15 15 104 14 109 -1 3 -9 8 -9 20 2 11 11 14 31 10 90 -2 41 -8 79 -13 84 -12 14 -11 76 1 76 12 0 13 27 1 32 -11 4 -33 420 -24 471 5 36 5 37 -25 37 -17 0 -34 -4 -37 -10z"/>
 <path d="M5156 2223 c-4 -37 -8 -79 -9 -93 -3 -35 -34 -60 -74 -60 -47 0 -43 -24 7 -39 46 -14 50 -28 16 -62 -13 -13 -26 -34 -30 -46 -4 -13 -13 -23 -21 -23 -8 0 -17 -9 -20 -20 -3 -11 -10 -20 -15 -20 -5 0 -11 -14 -15 -30 -4 -17 -15 -35 -26 -40 -10 -6 -19 -18 -19 -28 0 -9 -14 -30 -31 -47 -17 -16 -38 -42 -47 -57 -9 -16 -20 -28 -24 -28 -4 0 -8 -9 -8 -19 0 -23 28 -34 62 -26 13 3 42 2 63 -2 54 -12 72 -7 79 23 4 13 11 24 16 24 6 0 10 5 10 12 0 6 7 18 15 27 24 25 65 90 65 104 0 7 9 23 19 37 l19 25 7 -28 c4 -15 11 -27 15 -27 4 0 13 -34 19 -75 7 -41 16 -75 20 -75 4 0 5 -16 3 -35 -6 -53 10 -65 84 -65 36 0 64 -4 64 -10 0 -5 14 -10 30 -10 23 0 30 4 30 20 0 11 -4 20 -10 20 -5 0 -10 16 -10 35 0 19 -6 37 -14 42 -8 4 -21 31 -28 58 -7 28 -16 52 -19 55 -4 3 -12 31 -19 63 -7 31 -16 57 -20 57 -3 0 -13 23 -20 51 -8 27 -18 52 -22 55 -18 11 -6 22 33 28 31 5 40 10 37 24 -2 9 -13 18 -26 20 -12 2 -22 8 -22 13 0 5 -7 9 -15 9 -8 0 -15 5 -15 10 0 6 4 10 9 10 4 0 11 26 15 58 4 31 9 73 12 94 l6 36 -58 5 c-33 3 -71 8 -85 12 -26 7 -26 6 -33 -62z"/>
 <path d="M3006 1438 c-3 -7 -7 -33 -11 -58 -14 -96 -17 -110 -25 -110 -4 0 -14 -39 -21 -87 -13 -87 -13 -88 -67 -140 -61 -60 -63 -83 -7 -83 33 0 36 -2 29 -22 -4 -13 -10 -25 -14 -28 -4 -3 -13 -38 -20 -77 -11 -71 -30 -99 -30 -47 l0 26 -72 -7 c-40 -4 -75 -11 -78 -15 -3 -4 -17 -10 -31 -13 l-26 -7 -13 119 c-12 111 -12 119 6 139 10 12 24 22 31 22 7 0 13 9 13 20 0 15 -9 21 -39 26 -43 7 -41 0 -57 172 -4 39 -11 72 -15 72 -5 0 -9 11 -9 24 0 34 -27 58 -54 50 -11 -4 -22 -11 -24 -15 -2 -5 -23 -9 -47 -9 -24 0 -46 -3 -48 -7 -6 -11 11 -134 22 -158 5 -11 12 -46 15 -78 5 -49 4 -58 -11 -64 -10 -4 -22 -12 -26 -20 -4 -7 -15 -13 -22 -13 -8 0 -15 -9 -15 -19 0 -13 9 -21 30 -26 17 -4 30 -11 30 -16 0 -5 9 -9 19 -9 14 0 18 -5 14 -20 -3 -11 1 -35 10 -52 8 -18 17 -58 20 -89 l5 -57 -46 -7 c-26 -4 -51 -12 -55 -18 -6 -9 -10 -9 -14 1 -7 17 -61 15 -79 -2 -15 -16 -19 -46 -6 -46 5 0 7 -24 5 -54 -2 -36 2 -57 10 -65 14 -11 117 -4 117 9 0 4 53 12 118 19 64 7 125 17 134 22 10 5 32 9 50 9 18 0 51 5 73 10 39 9 184 -6 195 -20 3 -4 39 -10 80 -13 47 -4 79 -11 85 -21 9 -12 46 -19 147 -29 14 -1 30 -5 34 -9 4 -5 15 -8 25 -8 18 0 29 27 29 78 0 17 5 32 11 32 6 0 9 12 7 28 -3 26 -6 27 -93 40 -49 8 -91 18 -93 23 -2 5 -18 9 -37 9 -18 0 -50 6 -71 14 -22 7 -44 11 -51 9 -16 -6 -5 64 13 92 8 11 14 29 14 40 0 11 3 15 8 10 4 -6 43 -17 87 -24 44 -7 82 -17 85 -21 5 -7 43 -16 111 -26 34 -6 36 -4 43 26 3 18 6 45 6 61 0 16 5 29 10 29 6 0 10 11 10 24 0 23 -4 24 -82 31 -46 4 -86 12 -89 17 -4 5 -42 14 -86 20 l-80 10 13 37 c7 20 13 53 14 74 0 20 5 37 11 37 7 0 9 9 6 21 -5 18 -2 20 26 13 18 -3 41 -13 52 -20 11 -8 38 -14 60 -14 22 0 49 -6 60 -14 11 -7 40 -16 65 -19 25 -3 61 -9 81 -12 l37 -7 7 61 c4 33 10 61 15 61 4 0 13 -13 20 -30 7 -16 16 -30 21 -30 5 0 15 -15 23 -32 17 -38 48 -91 57 -98 12 -9 37 -78 31 -84 -3 -3 -13 -6 -23 -6 -14 0 -29 -18 -29 -36 0 -2 14 -4 30 -4 33 0 38 -11 15 -30 -8 -7 -15 -18 -15 -24 0 -6 -8 -19 -17 -28 -30 -28 -39 -42 -46 -70 -4 -15 -13 -33 -20 -40 -6 -7 -20 -30 -29 -51 -10 -21 -25 -40 -33 -43 -8 -4 -15 -14 -15 -23 0 -16 12 -18 91 -18 81 -1 92 2 96 18 3 11 9 19 13 19 5 0 13 14 19 30 5 17 14 30 19 30 5 0 20 24 33 54 24 57 39 64 39 18 0 -16 8 -32 20 -40 11 -7 20 -19 20 -27 0 -8 4 -15 9 -15 5 0 12 -17 16 -37 4 -21 16 -46 27 -57 17 -16 23 -17 43 -6 16 8 44 11 80 7 53 -5 55 -5 55 18 0 13 -9 30 -19 37 -11 8 -23 27 -27 43 -4 17 -16 36 -26 43 -10 7 -18 20 -18 28 0 8 -4 14 -10 14 -5 0 -12 15 -15 34 -4 19 -18 43 -31 55 -33 28 -32 61 1 61 34 0 31 12 -6 29 -26 12 -29 15 -15 23 9 5 16 16 16 23 0 8 4 15 8 15 4 0 14 17 22 38 13 36 57 92 72 92 5 0 8 -11 8 -25 0 -14 -4 -25 -9 -25 -18 0 -41 -32 -41 -56 0 -23 3 -24 38 -18 l39 6 13 -78 c7 -44 16 -83 20 -89 11 -16 30 -100 30 -134 0 -17 5 -31 10 -31 6 0 10 -16 10 -35 0 -37 25 -59 40 -35 5 8 9 9 14 1 4 -6 34 -11 67 -11 51 0 59 3 59 18 0 11 9 29 19 41 11 12 22 40 26 61 4 21 12 41 20 44 7 2 16 18 20 35 4 17 10 31 15 31 5 0 14 17 20 38 7 20 17 42 24 47 20 18 54 90 61 128 4 20 11 37 15 37 5 0 11 10 13 23 2 12 5 1 6 -25 1 -47 1 -47 34 -43 17 3 53 7 80 10 45 6 47 7 47 39 0 35 25 69 74 101 21 14 38 16 83 11 65 -8 89 -24 99 -69 5 -26 2 -34 -26 -59 -37 -32 -58 -35 -67 -11 -9 24 -43 56 -51 48 -4 -3 -14 -30 -22 -58 -12 -40 -21 -53 -38 -55 -12 -2 -22 -8 -22 -13 0 -5 -7 -9 -16 -9 -21 0 -104 -88 -104 -111 0 -10 -4 -21 -10 -24 -12 -7 -14 -122 -2 -127 4 -1 15 -19 25 -38 47 -92 68 -116 108 -125 16 -4 29 -11 29 -16 0 -15 149 -11 166 5 7 8 31 17 51 21 61 10 164 115 155 158 -1 4 2 7 8 7 15 0 12 82 -4 102 -10 14 -24 17 -63 14 -59 -5 -93 -23 -93 -50 0 -10 -11 -34 -26 -53 -18 -24 -33 -33 -55 -33 -16 0 -29 -4 -29 -10 0 -5 -16 -10 -35 -10 -19 0 -35 4 -35 9 0 5 -9 13 -20 16 -16 5 -20 15 -20 51 0 24 4 44 9 44 5 0 17 7 26 16 15 15 17 15 33 -7 22 -31 50 -59 61 -59 4 0 12 28 17 62 9 62 9 62 48 72 49 11 61 20 140 106 28 31 29 32 22 118 -4 48 -13 90 -19 94 -7 4 -8 8 -4 8 4 0 3 6 -2 13 -89 110 -134 137 -231 137 -38 0 -70 -5 -72 -10 -2 -6 -27 -14 -56 -19 -29 -4 -60 -15 -70 -23 -9 -8 -25 -18 -34 -21 -10 -4 -18 -12 -18 -19 0 -7 -10 -22 -23 -33 -18 -16 -36 -20 -97 -20 -41 0 -80 -4 -86 -10 -7 -6 -15 -30 -19 -53 -6 -40 -8 -42 -43 -42 -52 1 -172 17 -180 24 -3 4 -5 23 -4 44 3 42 -25 82 -57 82 -12 0 -18 7 -17 18 1 15 -10 17 -99 17 -96 0 -100 -1 -103 -22 -2 -13 -8 -23 -13 -23 -6 0 -17 -17 -26 -37 -8 -21 -19 -40 -23 -43 -4 -3 -15 -22 -25 -43 -16 -35 -19 -37 -28 -21 -6 11 -19 28 -29 38 -10 11 -18 28 -18 38 0 10 -6 21 -14 24 -7 3 -16 22 -20 44 -7 45 -17 50 -100 50 -34 0 -67 5 -73 11 -13 13 -33 4 -33 -15 0 -14 -63 -16 -76 -3 -4 4 -24 7 -45 7 -21 0 -40 4 -43 9 -3 5 -35 15 -71 22 -36 7 -65 16 -65 20 0 3 -39 10 -86 14 -59 5 -87 11 -91 21 -6 17 -32 18 -37 2z m1264 -408 c0 5 20 10 45 10 44 0 60 -12 30 -24 -8 -3 -15 -16 -15 -29 0 -13 -9 -34 -20 -47 -11 -13 -20 -31 -20 -41 0 -10 -5 -21 -10 -24 -6 -4 -7 -11 -4 -17 4 -6 3 -8 -3 -5 -6 4 -13 30 -16 59 -4 29 -11 54 -17 56 -6 2 -6 10 1 23 7 15 6 23 -6 35 -23 23 -18 28 10 10 14 -9 25 -12 25 -6z"/>
 </g>

</svg>